<svg width="22" height="17" viewBox="0 0 22 17" fill="none" xmlns="http://www.w3.org/2000/svg">
<path d="M21 5.43137C21 4.82555 21 4.52265 20.8802 4.38238C20.7763 4.26068 20.6203 4.19609 20.4608 4.20865C20.2769 4.22312 20.0627 4.43731 19.6343 4.86569L16 8.5L19.6343 12.1343C20.0627 12.5627 20.2769 12.7769 20.4608 12.7914C20.6203 12.8039 20.7763 12.7393 20.8802 12.6176C21 12.4774 21 12.1744 21 11.5686V5.43137Z" stroke="#175CD3" stroke-width="2" stroke-linecap="round" stroke-linejoin="round"/>
<path d="M1 6.3C1 4.61984 1 3.77976 1.32698 3.13803C1.6146 2.57354 2.07354 2.1146 2.63803 1.82698C3.27976 1.5 4.11984 1.5 5.8 1.5H11.2C12.8802 1.5 13.7202 1.5 14.362 1.82698C14.9265 2.1146 15.3854 2.57354 15.673 3.13803C16 3.77976 16 4.61984 16 6.3V10.7C16 12.3802 16 13.2202 15.673 13.862C15.3854 14.4265 14.9265 14.8854 14.362 15.173C13.7202 15.5 12.8802 15.5 11.2 15.5H5.8C4.11984 15.5 3.27976 15.5 2.63803 15.173C2.07354 14.8854 1.6146 14.4265 1.32698 13.862C1 13.2202 1 12.3802 1 10.7V6.3Z" stroke="#175CD3" stroke-width="2" stroke-linecap="round" stroke-linejoin="round"/>
</svg>
